<svg xmlns="http://www.w3.org/2000/svg" width="1200" height="630" viewBox="0 0 1200 630" role="img" aria-labelledby="title desc">
<title id="title">CODARIS — BUILD. VERIFY. ADVANCE.</title>
<desc id="desc">Social preview card for the Coalition Of Developers Advancing Responsible Intelligent Systems.</desc>
<defs>
  <linearGradient id="bg" x1="0" y1="0" x2="1" y2="1"><stop stop-color="#08111b"/><stop offset=".58" stop-color="#0b1b25"/><stop offset="1" stop-color="#102c34"/></linearGradient>
  <radialGradient id="glow"><stop stop-color="#25d5dc" stop-opacity=".2"/><stop offset="1" stop-color="#25d5dc" stop-opacity="0"/></radialGradient>
  <linearGradient id="accent" x1="0" x2="1"><stop stop-color="#45d9ad"/><stop offset="1" stop-color="#59e4eb"/></linearGradient>
  <pattern id="grid" width="40" height="40" patternUnits="userSpaceOnUse"><path d="M40 0H0V40" fill="none" stroke="#9ee9ef" stroke-opacity=".05"/></pattern>
  <filter id="soft"><feGaussianBlur stdDeviation="42"/></filter>
</defs>
<rect width="1200" height="630" rx="28" fill="url(#bg)"/>
<rect width="1200" height="630" rx="28" fill="url(#grid)"/>
<ellipse cx="950" cy="130" rx="310" ry="270" fill="url(#glow)" filter="url(#soft)"/>
<path d="M760 0h440v4H760zM0 626h1200v4H0z" fill="url(#accent)" opacity=".85"/>
<g fill="none" stroke="#6ee4e6" stroke-opacity=".16"><path d="M770 70h170v58h120"/><path d="M830 630V510h80v-62h290"/><path d="M1200 235h-82v54h-95"/><circle cx="940" cy="128" r="4" fill="#59e4eb"/><circle cx="910" cy="448" r="4" fill="#45d9ad"/><circle cx="1023" cy="289" r="4" fill="#59e4eb"/></g>
<g transform="translate(96 84) scale(2.05)"><path d="M20 2 36 11v18L20 38 4 29V11Z" fill="#0d222b" stroke="#59e4eb" stroke-width="2"/><path d="m26 12-6-3-10 6v11l10 6 6-3v-5l-6 3-5-3v-6l5-3 6 3Z" fill="#59e4eb"/><path d="m29 11 3 2v14l-3 2" fill="none" stroke="#59e4eb" stroke-width="1.5"/></g>
<text x="220" y="145" fill="#f1fbfc" font-family="Arial,Helvetica,sans-serif" font-size="37" font-weight="700" letter-spacing="4">CODARIS</text>
<text x="96" y="234" fill="#76e9d0" font-family="Arial,Helvetica,sans-serif" font-size="16" font-weight="700" letter-spacing="4">COALITION OF DEVELOPERS</text>
<text x="92" y="337" fill="#f4f8fb" font-family="Arial,Helvetica,sans-serif" font-size="58" font-weight="700" letter-spacing="-1">Responsible systems.</text>
<text x="92" y="405" fill="#c0d1d8" font-family="Arial,Helvetica,sans-serif" font-size="48" font-weight="400" letter-spacing="-1">Built with trust.</text>
<path d="M96 462h210" stroke="url(#accent)" stroke-width="4" stroke-linecap="round"/>
<text x="96" y="526" fill="#69e2e8" font-family="monospace" font-size="18" font-weight="700" letter-spacing="3">BUILD. VERIFY. ADVANCE.</text>
<text x="96" y="573" fill="#9cafba" font-family="Arial,Helvetica,sans-serif" font-size="18">codaris.org</text>
<text x="1105" y="573" text-anchor="end" fill="#617b88" font-family="monospace" font-size="12" letter-spacing="2">TRUST IS ENGINEERED</text>
</svg>
