<svg xmlns="http://www.w3.org/2000/svg" viewBox="0 0 100 100">
  <title>Coupyn — vector adaptation of supplied artwork</title>
  <defs>
    <linearGradient id="body" x1="0" y1="0" x2="1" y2="1"><stop stop-color="#0639d4"/><stop offset=".45" stop-color="#27aafa"/><stop offset="1" stop-color="#0017a6"/></linearGradient>
    <linearGradient id="top" x1=".2" y1="1" x2=".9" y2="0"><stop stop-color="#001798"/><stop offset=".55" stop-color="#147bea"/><stop offset="1" stop-color="#6cffff"/></linearGradient>
    <linearGradient id="left" x1="0" y1="0" x2="1" y2="1"><stop stop-color="#0526b4"/><stop offset=".5" stop-color="#2185f2"/><stop offset="1" stop-color="#6beafa"/></linearGradient>
    <linearGradient id="edge" x1="0" y1="0" x2="1" y2="1"><stop stop-color="#35bbfb"/><stop offset="1" stop-color="#07158d"/></linearGradient>
  </defs>
  <path d="M91 28C76 4 43 0 20 20-3 41 1 74 22 91c23 17 56 10 69-17L66 60c-9 17-34 12-34-8 0-18 23-26 34-10Z" fill="url(#body)"/>
  <path d="M49 5C25 22 24 47 33 62c-8-23 15-47 58-34C81 13 65 4 49 5Z" fill="url(#top)"/>
  <path d="M49 5C14 6-5 44 13 69c9 13 28 17 45 11-25 0-35-27-28-48C33 21 40 12 49 5Z" fill="url(#left)"/>
  <path d="M48 35c15-12 29-13 43-7L66 44c-5-6-11-10-18-9Z" fill="#0db8f0" opacity=".6"/>
  <path d="M13 69c18 26 59 30 78 5-8 23-37 32-59 22-9-4-15-13-19-27Z" fill="url(#edge)"/>
</svg>
