<svg xmlns="http://www.w3.org/2000/svg" width="576" height="360" viewBox="0 0 576 360"><g fill="#49dce6" font-family="monospace" font-size="12"><text x="12" y="20" opacity=".25">0</text><text x="48" y="20" opacity=".6">1</text><text x="84" y="20" opacity=".25">0</text><text x="120" y="20" opacity=".25">0</text><text x="156" y="20" opacity=".25">1</text><text x="192" y="20" opacity=".6">0</text><text x="228" y="20" opacity=".25">1</text><text x="264" y="20" opacity=".25">0</text><text x="300" y="20" opacity=".25">1</text><text x="336" y="20" opacity=".25">0</text><text x="372" y="20" opacity=".6">1</text><text x="408" y="20" opacity=".25">0</text><text x="444" y="20" opacity=".6">0</text><text x="480" y="20" opacity=".25">1</text><text x="516" y="20" opacity=".25">0</text><text x="552" y="20" opacity=".25">0</text><text x="12" y="50" opacity=".6">1</text><text x="48" y="50" opacity=".25">1</text><text x="84" y="50" opacity=".25">0</text><text x="120" y="50" opacity=".25">0</text><text x="156" y="50" opacity=".25">0</text><text x="192" y="50" opacity=".6">1</text><text x="228" y="50" opacity=".25">1</text><text x="264" y="50" opacity=".6">0</text><text x="300" y="50" opacity=".25">1</text><text x="336" y="50" opacity=".25">1</text><text x="372" y="50" opacity=".25">0</text><text x="408" y="50" opacity=".6">1</text><text x="444" y="50" opacity=".25">0</text><text x="480" y="50" opacity=".25">1</text><text x="516" y="50" opacity=".25">0</text><text x="552" y="50" opacity=".25">1</text><text x="12" y="80" opacity=".6">0</text><text x="48" y="80" opacity=".25">1</text><text x="84" y="80" opacity=".6">0</text><text x="120" y="80" opacity=".25">0</text><text x="156" y="80" opacity=".25">1</text><text x="192" y="80" opacity=".25">0</text><text x="228" y="80" opacity=".6">0</text><text x="264" y="80" opacity=".25">0</text><text x="300" y="80" opacity=".25">1</text><text x="336" y="80" opacity=".25">1</text><text x="372" y="80" opacity=".25">1</text><text x="408" y="80" opacity=".6">0</text><text x="444" y="80" opacity=".25">0</text><text x="480" y="80" opacity=".6">1</text><text x="516" y="80" opacity=".25">0</text><text x="552" y="80" opacity=".25">0</text><text x="12" y="110" opacity=".25">1</text><text x="48" y="110" opacity=".6">0</text><text x="84" y="110" opacity=".25">0</text><text x="120" y="110" opacity=".25">0</text><text x="156" y="110" opacity=".25">1</text><text x="192" y="110" opacity=".25">1</text><text x="228" y="110" opacity=".6">1</text><text x="264" y="110" opacity=".25">0</text><text x="300" y="110" opacity=".6">1</text><text x="336" y="110" opacity=".25">1</text><text x="372" y="110" opacity=".25">0</text><text x="408" y="110" opacity=".25">1</text><text x="444" y="110" opacity=".6">1</text><text x="480" y="110" opacity=".25">1</text><text x="516" y="110" opacity=".25">0</text><text x="552" y="110" opacity=".25">0</text><text x="12" y="140" opacity=".25">0</text><text x="48" y="140" opacity=".6">1</text><text x="84" y="140" opacity=".25">0</text><text x="120" y="140" opacity=".6">0</text><text x="156" y="140" opacity=".25">1</text><text x="192" y="140" opacity=".25">0</text><text x="228" y="140" opacity=".25">0</text><text x="264" y="140" opacity=".6">1</text><text x="300" y="140" opacity=".25">1</text><text x="336" y="140" opacity=".25">1</text><text x="372" y="140" opacity=".25">0</text><text x="408" y="140" opacity=".25">0</text><text x="444" y="140" opacity=".6">0</text><text x="480" y="140" opacity=".25">1</text><text x="516" y="140" opacity=".6">0</text><text x="552" y="140" opacity=".25">0</text><text x="12" y="170" opacity=".25">1</text><text x="48" y="170" opacity=".25">0</text><text x="84" y="170" opacity=".6">1</text><text x="120" y="170" opacity=".25">0</text><text x="156" y="170" opacity=".25">1</text><text x="192" y="170" opacity=".25">0</text><text x="228" y="170" opacity=".25">1</text><text x="264" y="170" opacity=".6">0</text><text x="300" y="170" opacity=".25">1</text><text x="336" y="170" opacity=".6">1</text><text x="372" y="170" opacity=".25">0</text><text x="408" y="170" opacity=".25">1</text><text x="444" y="170" opacity=".25">1</text><text x="480" y="170" opacity=".6">0</text><text x="516" y="170" opacity=".25">0</text><text x="552" y="170" opacity=".25">0</text><text x="12" y="200" opacity=".25">1</text><text x="48" y="200" opacity=".25">1</text><text x="84" y="200" opacity=".6">0</text><text x="120" y="200" opacity=".25">0</text><text x="156" y="200" opacity=".6">1</text><text x="192" y="200" opacity=".25">0</text><text x="228" y="200" opacity=".25">0</text><text x="264" y="200" opacity=".25">1</text><text x="300" y="200" opacity=".6">0</text><text x="336" y="200" opacity=".25">1</text><text x="372" y="200" opacity=".25">0</text><text x="408" y="200" opacity=".25">1</text><text x="444" y="200" opacity=".25">0</text><text x="480" y="200" opacity=".6">1</text><text x="516" y="200" opacity=".25">0</text><text x="552" y="200" opacity=".6">0</text><text x="12" y="230" opacity=".25">1</text><text x="48" y="230" opacity=".25">0</text><text x="84" y="230" opacity=".25">1</text><text x="120" y="230" opacity=".6">1</text><text x="156" y="230" opacity=".25">1</text><text x="192" y="230" opacity=".25">0</text><text x="228" y="230" opacity=".25">0</text><text x="264" y="230" opacity=".25">0</text><text x="300" y="230" opacity=".6">1</text><text x="336" y="230" opacity=".25">1</text><text x="372" y="230" opacity=".6">0</text><text x="408" y="230" opacity=".25">1</text><text x="444" y="230" opacity=".25">1</text><text x="480" y="230" opacity=".25">0</text><text x="516" y="230" opacity=".6">1</text><text x="552" y="230" opacity=".25">0</text><text x="12" y="260" opacity=".25">1</text><text x="48" y="260" opacity=".25">0</text><text x="84" y="260" opacity=".25">0</text><text x="120" y="260" opacity=".6">0</text><text x="156" y="260" opacity=".25">1</text><text x="192" y="260" opacity=".6">0</text><text x="228" y="260" opacity=".25">0</text><text x="264" y="260" opacity=".25">1</text><text x="300" y="260" opacity=".25">0</text><text x="336" y="260" opacity=".6">0</text><text x="372" y="260" opacity=".25">0</text><text x="408" y="260" opacity=".25">1</text><text x="444" y="260" opacity=".25">1</text><text x="480" y="260" opacity=".25">1</text><text x="516" y="260" opacity=".6">0</text><text x="552" y="260" opacity=".25">0</text><text x="12" y="290" opacity=".6">1</text><text x="48" y="290" opacity=".25">0</text><text x="84" y="290" opacity=".25">1</text><text x="120" y="290" opacity=".25">1</text><text x="156" y="290" opacity=".6">0</text><text x="192" y="290" opacity=".25">0</text><text x="228" y="290" opacity=".25">0</text><text x="264" y="290" opacity=".25">1</text><text x="300" y="290" opacity=".25">1</text><text x="336" y="290" opacity=".6">1</text><text x="372" y="290" opacity=".25">0</text><text x="408" y="290" opacity=".6">1</text><text x="444" y="290" opacity=".25">1</text><text x="480" y="290" opacity=".25">0</text><text x="516" y="290" opacity=".25">1</text><text x="552" y="290" opacity=".6">1</text><text x="12" y="320" opacity=".25">1</text><text x="48" y="320" opacity=".25">0</text><text x="84" y="320" opacity=".25">1</text><text x="120" y="320" opacity=".25">0</text><text x="156" y="320" opacity=".6">1</text><text x="192" y="320" opacity=".25">0</text><text x="228" y="320" opacity=".6">0</text><text x="264" y="320" opacity=".25">1</text><text x="300" y="320" opacity=".25">0</text><text x="336" y="320" opacity=".25">0</text><text x="372" y="320" opacity=".6">1</text><text x="408" y="320" opacity=".25">1</text><text x="444" y="320" opacity=".25">1</text><text x="480" y="320" opacity=".25">0</text><text x="516" y="320" opacity=".25">0</text><text x="552" y="320" opacity=".6">0</text><text x="12" y="350" opacity=".25">1</text><text x="48" y="350" opacity=".6">0</text><text x="84" y="350" opacity=".25">1</text><text x="120" y="350" opacity=".25">1</text><text x="156" y="350" opacity=".25">0</text><text x="192" y="350" opacity=".6">1</text><text x="228" y="350" opacity=".25">0</text><text x="264" y="350" opacity=".25">1</text><text x="300" y="350" opacity=".25">0</text><text x="336" y="350" opacity=".25">1</text><text x="372" y="350" opacity=".6">0</text><text x="408" y="350" opacity=".25">1</text><text x="444" y="350" opacity=".6">1</text><text x="480" y="350" opacity=".25">0</text><text x="516" y="350" opacity=".25">1</text><text x="552" y="350" opacity=".25">1</text></g></svg>
